Coordinates
version=1
nRows=17
nColumns=24
inDegrees=yes

Units are S.I. units (second, meters, Newtons, ...)
Angles are in degrees.

endheader
time	pelvis_tilt	pelvis_list	pelvis_rotation	pelvis_tx	pelvis_ty	pelvis_tz	hip_flexion_r	hip_adduction_r	hip_rotation_r	knee_angle_r	ankle_angle_r	subtalar_angle_r	mtp_angle_r	hip_flexion_l	hip_adduction_l	hip_rotation_l	knee_angle_l	ankle_angle_l	subtalar_angle_l	mtp_angle_l	lumbar_extension	lumbar_bending	lumbar_rotation
      0.44100000	     -3.93223640	      0.80398096	     -0.31176088	     -0.76339012	      1.05257296	      0.29214451	     25.16463958	      1.68908195	     -9.58538820	     -2.93470235	      5.36553922	     -1.94176028	     -0.13882027	     -5.75705867	      4.54460917	     -0.41021952	     -9.51637376	     15.14855050	      1.28746984	      0.06218544	      4.16967555	      1.87936694	     -2.25996503
      0.44516667	     -3.97857098	      0.74839925	     -0.42648497	     -0.75750102	      1.05192679	      0.29237370	     25.17813229	      1.85628060	     -9.20265953	     -3.10098080	      5.37557332	     -1.68613991	     -0.16594325	     -5.81175543	      4.49052213	     -0.55002431	    -10.02653938	     15.31836942	      1.06841118	     -0.01596997	      4.24183947	      1.98106024	     -2.54473708
      0.44933333	     -3.94912283	      0.71730779	     -0.43305409	     -0.75179118	      1.05143248	      0.29241653	     25.14241153	      1.94232874	     -9.04122591	     -3.38985055	      5.39247533	     -1.61405976	     -0.17298671	     -5.89519424	      4.45351901	     -0.55032636	    -10.61897641	     15.33448035	      1.04866421	     -0.03854731	      4.31712456	      2.01189596	     -2.60342648
      0.45350000	     -3.99564124	      0.66301868	     -0.56015151	     -0.74587079	      1.05080344	      0.29273153	     25.17151920	      2.11631086	     -8.57799697	     -3.72348436	      5.55194468	     -1.38030390	     -0.19436289	     -5.89444193	      4.38435342	     -0.79421795	    -11.24614184	     15.57327471	      1.10029854	     -0.11027510	      4.29859378	      2.08686274	     -2.81015719
      0.45766667	     -3.93187489	      0.62586254	     -0.56013146	     -0.74007844	      1.05040372	      0.29275789	     25.10346772	      2.19960162	     -8.39145117	     -4.13761880	      5.54893685	     -1.32551394	     -0.19914095	     -5.97141167	      4.33383121	     -0.79822272	    -11.93528991	     15.57498708	      1.13354545	     -0.12755694	      4.38943562	      2.12719833	     -2.84169702
      0.46183333	     -3.93896438	      0.57889674	     -0.76564832	     -0.73412617	      1.04984221	      0.29341964	     25.09292282	      2.42242322	     -7.69245018	     -4.57672898	      5.75850486	     -1.24453548	     -0.25881682	     -5.94681226	      4.23879495	     -1.35913539	    -12.71067604	     15.93826305	      1.84044753	     -0.30779412	      4.45722582	      2.04116218	     -3.06464885
      0.46600000	     -3.88607756	      0.52851647	     -0.73506151	     -0.72826790	      1.04949960	      0.29339504	     25.02758759	      2.50234068	     -7.49388250	     -5.06259747	      5.70306132	     -1.21509323	     -0.26312955	     -5.95530697	      4.16015229	     -1.35373198	    -13.51665311	     15.90668211	      1.85724990	     -0.32289221	      4.47895081	      2.16071833	     -3.08632286
      0.47016667	     -3.87940954	      0.48078475	     -0.93260865	     -0.72231012	      1.04901513	      0.29412693	     24.99473179	      2.72816481	     -6.72079589	     -5.54349548	      5.64936323	     -1.39910482	     -0.31697418	     -5.88516471	      4.04141253	     -1.93079638	    -14.40761686	     16.12215232	      2.57016253	     -0.47750523	      4.45680573	      2.15568012	     -3.15559387
      0.47433333	     -3.85763919	      0.41397352	     -0.98710314	     -0.71636507	      1.04865595	      0.29454639	     24.93549496	      2.89805110	     -6.20017351	     -6.03152627	      5.48177328	     -1.76103215	     -0.37965421	     -5.79140069	      3.89379705	     -2.25828575	    -15.36862613	     16.17728973	      3.13763457	     -0.64579718	      4.44824250	      2.25920556	     -3.14412838
      0.47850000	     -3.79856585	      0.37844419	     -1.04596325	     -0.71048979	      1.04837019	      0.29477971	     24.86724753	      3.00888532	     -5.83510445	     -6.59706045	      5.36454674	     -1.83611560	     -0.40408089	     -5.71488244	      3.80232890	     -2.46592033	    -16.35409936	     16.10807947	      3.35326655	     -0.71359104	      4.36994629	      2.37654602	     -3.16234992
      0.48266667	     -3.70131855	      0.29793513	     -0.98204211	     -0.70450087	      1.04825561	      0.29476038	     24.71669825	      3.10155189	     -5.62098880	     -7.11336794	      5.29087598	     -1.79707951	     -0.40579625	     -5.65042278	      3.65082746	     -2.51356902	    -17.40379478	     16.01621805	      3.37402416	     -0.72129640	      4.41926834	      2.46077652	     -3.16518462
      0.48683333	     -3.68413697	      0.22484619	     -1.14643471	     -0.69845790	      1.04796016	      0.29566181	     24.63635725	      3.35344378	     -4.85802476	     -7.59557085	      5.00772535	     -2.18685646	     -0.43768339	     -5.45882557	      3.43760790	     -3.16325425	    -18.54014173	     15.81864890	      4.31526784	     -0.77610241	      4.37143091	      2.42858922	     -3.16851518
      0.49100000	     -3.63622888	      0.14958450	     -1.10452509	     -0.69248574	      1.04782938	      0.29576851	     24.54420997	      3.45660115	     -4.66197185	     -8.14414906	      4.88933858	     -2.26092536	     -0.44368556	     -5.25975019	      3.26249879	     -3.32842210	    -19.73913958	     15.68550577	      4.42615673	     -0.78353033	      4.25693021	      2.60480519	     -3.18743497
      0.49516667	     -3.57974480	      0.11707388	     -1.22211033	     -0.68659548	      1.04767133	      0.29633110	     24.46005476	      3.60369791	     -4.19266301	     -8.70837616	      4.56583241	     -2.64586325	     -0.46234185	     -5.03936317	      3.10846141	     -3.74951377	    -20.97147773	     15.27762801	      5.14451847	     -0.78506471	      4.23586877	      2.67424443	     -3.19472858
      0.49933333	     -3.52384013	      0.02800555	     -1.23848747	     -0.68060456	      1.04760263	      0.29680556	     24.32986217	      3.77176278	     -3.78725084	     -9.20374579	      4.31232803	     -3.05686308	     -0.47898223	     -4.77822084	      2.86614044	     -4.09391676	    -22.29648702	     14.99897080	      5.65905561	     -0.76544208	      4.18193170	      2.78846317	     -3.19143636
      0.50350000	     -3.36491960	     -0.05785346	     -1.17931060	     -0.67462101	      1.04776086	      0.29683175	     24.08890415	      3.85571230	     -3.62529342	     -9.70652009	      4.22436283	     -3.03256824	     -0.47913374	     -4.60374254	      2.66118395	     -4.20795397	    -23.65778872	     14.83398286	      5.68586727	     -0.76135072	      4.24327945	      2.86619778	     -3.18694631
      0.50766667	     -3.37319149	     -0.12218279	     -1.23960820	     -0.66870058	      1.04763210	      0.29747116	     24.04964964	      4.01846984	     -3.26590261	    -10.24478171	      3.88753565	     -3.43079304	     -0.49160230	     -4.19393910	      2.41381231	     -4.62692960	    -25.08110610	     14.03539188	      6.43811746	     -0.71756959	      4.06677704	      2.96545185	     -3.20918156
